<svg xmlns="http://www.w3.org/2000/svg" xmlns:xlink="http://www.w3.org/1999/xlink" version="1.1" x="0px" y="0px" viewBox="0 0 24 30" enable-background="new 0 0 24 24" xml:space="preserve"><g><g><circle cx="7.5" cy="11.5" r="0.5"/><path d="M5,11.5c0,1.4,0.8,2.6,2,3.1c2.3-0.8,4-3,4-5.6C10.4,8.4,9.5,8,8.5,8C6.6,8,5,9.6,5,11.5z M9,11.5C9,12.3,8.3,13,7.5,13    S6,12.3,6,11.5S6.7,10,7.5,10S9,10.7,9,11.5z"/><circle cx="16.5" cy="11.5" r="0.5"/><path d="M15.5,8c-1,0-1.9,0.4-2.5,1.1c0,2.6,1.7,4.7,4,5.6c1.2-0.6,2-1.7,2-3.1C19,9.6,17.4,8,15.5,8z M16.5,13    c-0.8,0-1.5-0.7-1.5-1.5s0.7-1.5,1.5-1.5c0.8,0,1.5,0.7,1.5,1.5S17.3,13,16.5,13z"/></g><g><ellipse cx="12" cy="14" rx="2" ry="1"/><path d="M15.4,16.4C15.1,16.8,14.6,17,14,17c-0.5,0-1-0.2-1.4-0.6c-0.2-0.2-0.3-0.4-0.4-0.6c0,0,0,0,0,0c0-0.1-0.1-0.2-0.1-0.3    c0,0,0,0,0-0.1c0-0.1,0-0.3,0-0.4c0,0.1,0,0.3,0,0.4c0,0,0,0,0,0.1c0,0.1-0.1,0.2-0.1,0.3c0,0,0,0,0,0c-0.1,0.2-0.3,0.4-0.4,0.6    C11,16.8,10.5,17,10,17c-0.6,0-1.1-0.2-1.4-0.6l-0.7,0.7C8.4,17.7,9.2,18,10,18c0.8,0,1.5-0.3,2-0.8c0.5,0.5,1.2,0.8,2,0.8    c0.8,0,1.6-0.3,2.1-0.9L15.4,16.4z"/></g><path d="M22,5c0-1.7-1.3-3-3-3c-1,0-1.8,0.5-2.3,1.2C15.3,2.4,13.7,2,12,2c-1.7,0-3.3,0.4-4.6,1.1C6.8,2.5,6,2,5,2C3.3,2,2,3.3,2,5   c0,1,0.5,1.8,1.1,2.4C2.4,8.7,2,10.3,2,12c0,5.5,4.5,10,10,10c5.5,0,10-4.5,10-10c0-1.7-0.4-3.3-1.2-4.7C21.5,6.8,22,6,22,5z    M12,20c-4.4,0-8-3.6-8-8s3.6-8,8-8c4.4,0,8,3.6,8,8S16.4,20,12,20z"/></g><text x="0" y="39" fill="#000000" font-size="5px" font-weight="bold" font-family="'Helvetica Neue', Helvetica, Arial-Unicode, Arial, Sans-serif">Created by Creative Stall</text><text x="0" y="44" fill="#000000" font-size="5px" font-weight="bold" font-family="'Helvetica Neue', Helvetica, Arial-Unicode, Arial, Sans-serif">from the Noun Project</text></svg>